<?xml version="1.0" encoding="UTF-8" standalone="no"?>
<!-- Created with Inkscape (http://www.inkscape.org/) -->

<svg
   xmlns:dc="http://purl.org/dc/elements/1.1/"
   xmlns:cc="http://creativecommons.org/ns#"
   xmlns:rdf="http://www.w3.org/1999/02/22-rdf-syntax-ns#"
   xmlns:svg="http://www.w3.org/2000/svg"
   xmlns="http://www.w3.org/2000/svg"
   xmlns:sodipodi="http://sodipodi.sourceforge.net/DTD/sodipodi-0.dtd"
   xmlns:inkscape="http://www.inkscape.org/namespaces/inkscape"
   width="64"
   height="64"
   id="svg2"
   version="1.1"
   inkscape:version="0.47 r22583"
   sodipodi:docname="logo.svg"
   inkscape:export-filename="/home/nfroidure/Bureau/LocalServer/rest4/rest4/public/images/favicon.png"
   inkscape:export-xdpi="90"
   inkscape:export-ydpi="90">
  <defs
     id="defs4">
    <inkscape:perspective
       sodipodi:type="inkscape:persp3d"
       inkscape:vp_x="0 : 526.18109 : 1"
       inkscape:vp_y="0 : 1000 : 0"
       inkscape:vp_z="744.09448 : 526.18109 : 1"
       inkscape:persp3d-origin="372.04724 : 350.78739 : 1"
       id="perspective10" />
  </defs>
  <sodipodi:namedview
     id="base"
     pagecolor="#ffffff"
     bordercolor="#666666"
     borderopacity="1.0"
     inkscape:pageopacity="0.0"
     inkscape:pageshadow="2"
     inkscape:zoom="2.5635259"
     inkscape:cx="7.6800371"
     inkscape:cy="38.816416"
     inkscape:document-units="px"
     inkscape:current-layer="g2831"
     showgrid="false"
     inkscape:window-width="1280"
     inkscape:window-height="949"
     inkscape:window-x="0"
     inkscape:window-y="25"
     inkscape:window-maximized="1" />
  <metadata
     id="metadata7">
    <rdf:RDF>
      <cc:Work
         rdf:about="">
        <dc:format>image/svg+xml</dc:format>
        <dc:type
           rdf:resource="http://purl.org/dc/dcmitype/StillImage" />
        <dc:title></dc:title>
      </cc:Work>
    </rdf:RDF>
  </metadata>
  <g
     inkscape:label="Calque 1"
     inkscape:groupmode="layer"
     id="layer1"
     transform="translate(711.41046,-742.68536)">
    <g
       id="g2831"
       transform="matrix(1.3380649,0,0,1.3380649,240.5029,-272.712)">
      <path
         d="m -673.4793,766.10488 -5.20602,8.65476 5.20602,0 0,-8.65476 m -0.36475,-2.01835 2.58644,0 0,10.67311 2.19957,0 0,1.79897 -2.19957,0 0,3.90506 -2.22169,0 0,-3.90506 -6.99663,0 0,-2.09514 6.63188,-10.37694"
         style="font-size:40px;font-style:normal;font-variant:normal;font-weight:normal;font-stretch:normal;fill:#afc6e9;fill-opacity:1;stroke:none;font-family:DejaVu Sans Mono;-inkscape-font-specification:DejaVu Sans Mono"
         id="path2828" />
      <g
         id="text2816"
         style="font-size:40px;font-style:normal;font-variant:normal;font-weight:normal;font-stretch:normal;fill:#808080;fill-opacity:1;stroke:none;font-family:DejaVu Sans Mono;-inkscape-font-specification:DejaVu Sans Mono"
         transform="matrix(1.2912496,0,0,1.281454,195.74635,-232.27629)">
        <path
           id="path2825"
           d="m -685.15625,792.91583 c 1.01561,0.26043 1.88149,0.75522 2.59766,1.48438 0.71612,0.71615 1.60805,2.15496 2.67578,4.3164 l 3.96484,7.96875 -4.23828,0 -3.47656,-7.36328 c -1.00262,-2.09634 -1.90757,-3.444 -2.71485,-4.04297 -0.79428,-0.61196 -1.83595,-0.91795 -3.125,-0.91796 l -3.76953,0 0,12.32421 -3.96484,0 0,-29.16015 8.125,0 c 3.20311,3e-5 5.65753,0.72268 7.36328,2.16797 1.70571,1.44533 2.55857,3.53518 2.55859,6.26953 -2e-5,1.9271 -0.52736,3.50262 -1.58203,4.72656 -1.04168,1.21095 -2.51304,1.95314 -4.41406,2.22656 m -8.08594,-12.14843 0,10.35156 4.31641,0 c 1.88801,10e-6 3.29426,-0.42316 4.21875,-1.26953 0.92446,-0.84634 1.3867,-2.14191 1.38672,-3.88672 -2e-5,-1.67967 -0.49481,-2.96222 -1.48438,-3.84766 -0.97657,-0.89841 -2.40235,-1.34763 -4.27734,-1.34765 l -4.16016,0" />
      </g>
    </g>
  </g>
</svg>
